<?xml version="1.0" encoding="UTF-8" standalone="no"?>
<svg
   xmlns:dc="http://purl.org/dc/elements/1.1/"
   xmlns:cc="http://creativecommons.org/ns#"
   xmlns:rdf="http://www.w3.org/1999/02/22-rdf-syntax-ns#"
   xmlns:svg="http://www.w3.org/2000/svg"
   xmlns="http://www.w3.org/2000/svg"
   xmlns:sodipodi="http://sodipodi.sourceforge.net/DTD/sodipodi-0.dtd"
   xmlns:inkscape="http://www.inkscape.org/namespaces/inkscape"
   id="svg8"
   version="1.1"
   viewBox="0 0 210 297"
   height="297mm"
   width="210mm"
   sodipodi:docname="cartpend-2.svg"
   inkscape:version="0.92.5 (2060ec1f9f, 2020-04-08)">
  <sodipodi:namedview
     pagecolor="#ffffff"
     bordercolor="#666666"
     borderopacity="1"
     objecttolerance="10"
     gridtolerance="10"
     guidetolerance="10"
     inkscape:pageopacity="0"
     inkscape:pageshadow="2"
     inkscape:window-width="2488"
     inkscape:window-height="1376"
     id="namedview4892"
     showgrid="false"
     inkscape:zoom="2.1344838"
     inkscape:cx="-49.925464"
     inkscape:cy="1211.9907"
     inkscape:window-x="72"
     inkscape:window-y="27"
     inkscape:window-maximized="1"
     inkscape:current-layer="layer1" />
  <defs
     id="defs2" />
  <metadata
     id="metadata5">
    <rdf:RDF>
      <cc:Work
         rdf:about="">
        <dc:format>image/svg+xml</dc:format>
        <dc:type
           rdf:resource="http://purl.org/dc/dcmitype/StillImage" />
        <dc:title />
      </cc:Work>
    </rdf:RDF>
  </metadata>
  <g
     id="layer1">
    <path
       id="body"
       d="M -35.814748,0.48135896 V 11.992421 h 8.486682 c -0.945568,-1.288524 -1.456967,-2.8443248 -1.460292,-4.4425641 2.39e-4,-4.161798 3.374285,-7.53538694 7.53608,-7.53506794 4.161402,2.38e-4 7.534827,3.37366394 7.535065,7.53506794 -0.0031,1.5981323 -0.514069,3.1539161 -1.459281,4.4425641 h 27.911401 c -0.945568,-1.288524 -1.456966,-2.8443248 -1.46029,-4.4425641 2.38e-4,-4.161798 3.374283,-7.53538694 7.53608,-7.53506794 4.161402,2.38e-4 7.534826,3.37366394 7.535065,7.53506794 -0.0025,1.5980163 -0.513418,3.1537931 -1.45827,4.4425641 H 35.712261 V -0.30455404 L 33.012143,-8.2008701 h -65.406299 z"
       style="display:inline;opacity:1;fill:#4c42e4;fill-opacity:0.64999998;fill-rule:evenodd;stroke:#000000;stroke-width:0.19569515;stroke-miterlimit:4;stroke-dasharray:none;stroke-dashoffset:0;stroke-opacity:0.87727272"
       inkscape:connector-curvature="0"
       inkscape:label="body" />
    <path
       style="opacity:1;fill:#565656;fill-opacity:1;fill-rule:evenodd;stroke:#000000;stroke-width:0.17612566;stroke-miterlimit:4;stroke-dasharray:none;stroke-dashoffset:0;stroke-opacity:1"
       d="m -14.516987,7.5545519 a 6.781951,6.781951 0 0 1 -6.781952,6.7819501 6.781951,6.781951 0 0 1 -6.78195,-6.7819501 6.781951,6.781951 0 0 1 6.78195,-6.78195097 6.781951,6.781951 0 0 1 6.781952,6.78195097 z"
       id="wheel-2"
       inkscape:connector-curvature="0"
       inkscape:label="wheel-2" />
    <path
       style="opacity:1;fill:#565656;fill-opacity:1;fill-rule:evenodd;stroke:#000000;stroke-width:0.17612566;stroke-miterlimit:4;stroke-dasharray:none;stroke-dashoffset:0;stroke-opacity:1"
       d="M 25.567283,7.5438329 A 6.781951,6.781951 0 0 1 18.785332,14.325784 6.781951,6.781951 0 0 1 12.00338,7.5438329 6.781951,6.781951 0 0 1 18.785332,0.76187893 6.781951,6.781951 0 0 1 25.567283,7.5438329 Z"
       id="wheel-1"
       inkscape:connector-curvature="0"
       inkscape:label="wheel-1" />
    <path
       style="opacity:1;fill:#0fff27;fill-opacity:0.52272728;fill-rule:evenodd;stroke:#000000;stroke-width:0.25923651;stroke-miterlimit:4;stroke-dasharray:none;stroke-dashoffset:0;stroke-opacity:1"
       d="m -0.04562257,-105.28676 c -2.49499473,-1.3e-4 -4.50386553,2.00912 -4.50410023,4.5041 L -4.5589028,0.08395496 C -4.55913,2.5788879 -2.5508193,4.5888499 -0.05582447,4.5890769 2.4391385,4.5893079 4.4470201,2.5799109 4.447248,0.08497696 L 4.456428,-100.78266 c 2.272e-4,-2.49499 -2.0070897,-4.50387 -4.50205677,-4.5041 z m 0.010217,11.00312 c 1.66277657,-1.52e-4 3.01060397,1.348129 3.00988807,3.010907 -9.734e-4,1.661577 -1.3483068,3.007998 -3.00988807,3.007843 -1.66158043,-4.12e-4 -3.00845433,-1.347282 -3.00886573,-3.008863 -1.519e-4,-1.661977 1.3468871,-3.009475 3.00886573,-3.009887 z m -0.00102,7.823664 c 1.66277637,-1.52e-4 3.01060387,1.348125 3.00988787,3.010904 -9.734e-4,1.661576 -1.3483068,3.007997 -3.00988787,3.007846 -1.66158023,-4.12e-4 -3.00845453,-1.347286 -3.00886583,-3.008863 -1.52e-4,-1.661978 1.346887,-3.009479 3.00886583,-3.009887 z m 0,7.82366 c 1.66237777,-1.51e-4 3.01004007,1.347505 3.00988787,3.009887 -4.114e-4,1.662382 -1.3485315,3.009585 -3.01090997,3.008867 -1.66158013,-4.12e-4 -3.00845443,-1.347286 -3.00886543,-3.008867 -1.524e-4,-1.662382 1.3475096,-3.010038 3.00988753,-3.009887 z m -0.00102,7.823667 c 1.66237797,-1.51e-4 3.01004037,1.347506 3.00988817,3.009884 -4.112e-4,1.662382 -1.3485315,3.009581 -3.01090997,3.008867 -1.66118133,-0.001 -3.00743303,-1.347683 -3.00784353,-3.008867 -1.524e-4,-1.661977 1.3468866,-3.009472 3.00886533,-3.009884 z m -0.011231,7.747011 c 1.69036227,5.25e-4 3.06061087,1.370632 3.06098937,3.060991 5.32e-5,1.69088 -1.3711249,3.061626 -3.06201157,3.062011 -1.69142043,1.1e-4 -3.06237253,-1.370595 -3.06201133,-3.062011 6.803e-4,-1.690899 1.3721302,-3.061369 3.06303353,-3.060991 z m -0.00102,7.280966 c 1.69036487,5.21e-4 3.06061787,1.370629 3.06098927,3.060987 5.33e-5,1.69088 -1.3701029,3.061634 -3.06098927,3.062012 -1.69142193,1.13e-4 -3.06237253,-1.370595 -3.06201163,-3.062012 6.803e-4,-1.690895 1.3711038,-3.061373 3.06201163,-3.060987 z m 0,7.280958 c 1.69036077,5.26e-4 3.05959187,1.370637 3.05996717,3.060995 5.34e-5,1.690884 -1.3701029,3.06163 -3.06098937,3.062011 -1.69142173,1.17e-4 -3.06237113,-1.370598 -3.06201153,-3.062011 6.803e-4,-1.690902 1.3721286,-3.061373 3.06303373,-3.060995 z m -0.00102,7.28097 c 1.69036217,6.8e-4 3.06061367,1.370633 3.06098937,3.060998 5.32e-5,1.690884 -1.3711221,3.061631 -3.06201147,3.062009 -1.69142453,1.15e-4 -3.06237673,-1.370595 -3.06201113,-3.062009 6.799e-4,-1.690902 1.3721287,-3.06138 3.06303323,-3.060998 z m -0.00102,7.27893 c 1.69088527,6.76e-4 3.06136097,1.372141 3.06098937,3.063031 5.34e-5,1.690882 -1.3701,3.061631 -3.06098937,3.062013 -1.69142213,1.11e-4 -3.06237353,-1.370597 -3.06201113,-3.062013 -5.49e-5,-1.691424 1.3705957,-3.063405 3.06201113,-3.063031 z m 0,7.280961 c 1.69088407,6.81e-4 3.06033827,1.372137 3.05996747,3.063032 5.34e-5,1.690886 -1.3701019,3.061631 -3.06098947,3.062017 -1.69142383,1.15e-4 -3.06237883,-1.370589 -3.06201113,-3.062017 -5.49e-5,-1.69142 1.3716177,-3.063406 3.06303313,-3.063032 z m -0.00102,7.280966 c 1.69088727,6.81e-4 3.06135857,1.372145 3.06098947,3.063032 5.32e-5,1.690886 -1.3711272,3.061631 -3.06201157,3.062016 -1.69142103,7.2e-5 -3.06237593,-1.370593 -3.06201113,-3.062016 -5.49e-5,-1.69142 1.3716094,-3.063406 3.06303323,-3.063032 z m -0.00102,7.280966 c 1.69088557,6.8e-4 3.06135517,1.372145 3.06098937,3.0630309 5.35e-5,1.690891 -1.3701015,3.061632 -3.06098937,3.062013 -1.69142423,5.6e-5 -3.06237993,-1.370589 -3.06201113,-3.062013 -5.49e-5,-1.6914189 1.3705893,-3.0634089 3.06201113,-3.0630309 z m 0.00307,11.45278595 c 0.3775095,2.67e-4 0.68347495,0.30622501 0.68374015,0.68374201 2.99e-4,0.377915 -0.30583165,0.68449597 -0.68374015,0.68476297 -0.3783081,2.98e-4 -0.6850618,-0.30646297 -0.6847624,-0.68476297 2.654e-4,-0.37792 0.3068539,-0.68404001 0.6847624,-0.68374201 z"
       id="link"
       inkscape:connector-curvature="0"
       sodipodi:nodetypes="cccscccccccccccccccccccccccccccccccccccccccccccccccccccccccccccccccccccc"
       inkscape:label="link"
       inkscape:transform-center-y="-51.435864"
       inkscape:transform-center-x="-2.1204248e-06" />
  </g>
</svg>
