<?xml version="1.0" encoding="UTF-8" standalone="no"?>
<svg
   xmlns:dc="http://purl.org/dc/elements/1.1/"
   xmlns:cc="http://creativecommons.org/ns#"
   xmlns:rdf="http://www.w3.org/1999/02/22-rdf-syntax-ns#"
   xmlns:svg="http://www.w3.org/2000/svg"
   xmlns="http://www.w3.org/2000/svg"
   xmlns:sodipodi="http://sodipodi.sourceforge.net/DTD/sodipodi-0.dtd"
   xmlns:inkscape="http://www.inkscape.org/namespaces/inkscape"
   id="svg8"
   version="1.1"
   viewBox="0 0 210 297"
   height="297mm"
   width="210mm"
   sodipodi:docname="cartpend.svg"
   inkscape:version="0.92.5 (2060ec1f9f, 2020-04-08)">
  <sodipodi:namedview
     pagecolor="#ffffff"
     bordercolor="#666666"
     borderopacity="1"
     objecttolerance="10"
     gridtolerance="10"
     guidetolerance="10"
     inkscape:pageopacity="0"
     inkscape:pageshadow="2"
     inkscape:window-width="2488"
     inkscape:window-height="1376"
     id="namedview4892"
     showgrid="false"
     inkscape:zoom="4.2689674"
     inkscape:cx="-44.327338"
     inkscape:cy="1115.3357"
     inkscape:window-x="72"
     inkscape:window-y="27"
     inkscape:window-maximized="1"
     inkscape:current-layer="layer1" />
  <defs
     id="defs2" />
  <metadata
     id="metadata5">
    <rdf:RDF>
      <cc:Work
         rdf:about="">
        <dc:format>image/svg+xml</dc:format>
        <dc:type
           rdf:resource="http://purl.org/dc/dcmitype/StillImage" />
        <dc:title />
      </cc:Work>
    </rdf:RDF>
  </metadata>
  <g
     id="layer1">
    <path
       id="body"
       d="m -18.189882,-1.270462 v 5.8821399 h 4.336685 c -0.483185,-0.6584341 -0.744509,-1.4534462 -0.746208,-2.2701461 1.22e-4,-2.12667323 1.724256,-3.8505738 3.850929,-3.8504098 2.1264718,1.217e-4 3.8502878,1.72393766 3.8504095,3.8504098 -0.00159,0.8166444 -0.2626889,1.6116485 -0.7456911,2.2701461 H 6.6189376 C 6.1357528,3.9532438 5.8744292,3.1582317 5.8727305,2.3415318 5.8728523,0.21485857 7.5969857,-1.509042 9.7236589,-1.508878 c 2.1264721,1.217e-4 3.8502881,1.72393766 3.8504101,3.8504098 -0.0013,0.8165862 -0.262356,1.611585 -0.745175,2.2701461 h 5.531445 V -1.6720624 L 16.980582,-5.707072 h -33.422545 z"
       style="display:inline;opacity:1;fill:#878787;fill-opacity:1;fill-rule:evenodd;stroke:#000000;stroke-width:0.1;stroke-miterlimit:4;stroke-dasharray:none;stroke-dashoffset:0;stroke-opacity:1"
       inkscape:connector-curvature="0"
       inkscape:label="body" />
    <path
       style="opacity:1;fill:#000000;fill-opacity:1;fill-rule:evenodd;stroke:none;stroke-width:0.09000001;stroke-miterlimit:4;stroke-dasharray:none;stroke-dashoffset:0;stroke-opacity:1"
       d="m -7.3067503,2.3439317 a 3.4655695,3.4655695 0 0 1 -3.4655697,3.4655695 3.4655695,3.4655695 0 0 1 -3.465569,-3.4655695 3.4655695,3.4655695 0 0 1 3.465569,-3.4655695 3.4655695,3.4655695 0 0 1 3.4655697,3.4655695 z"
       id="wheel-2"
       inkscape:connector-curvature="0"
       inkscape:label="wheel-2" />
    <path
       style="opacity:1;fill:#1c1c1c;fill-opacity:1;fill-rule:evenodd;stroke:none;stroke-width:0.09000002;stroke-miterlimit:4;stroke-dasharray:none;stroke-dashoffset:0;stroke-opacity:1"
       d="M 13.176267,2.3384538 A 3.4655695,3.4655695 0 0 1 9.7106972,5.8040233 3.4655695,3.4655695 0 0 1 6.2451277,2.3384538 3.4655695,3.4655695 0 0 1 9.7106972,-1.1271157 3.4655695,3.4655695 0 0 1 13.176267,2.3384538 Z"
       id="wheel-1"
       inkscape:connector-curvature="0"
       inkscape:label="wheel-1" />
    <path
       style="opacity:1;fill:#380fff;fill-opacity:1;fill-rule:evenodd;stroke:#000000;stroke-width:0.13246952;stroke-miterlimit:4;stroke-dasharray:none;stroke-dashoffset:0;stroke-opacity:1"
       d="m 0.08810079,-56.393646 c -1.27493959,-6.7e-5 -2.30147019,1.026656 -2.30159029,2.30159 l -0.0047,52.6185216 c -1.161e-4,1.27490797 1.0261283,2.30199587 2.30106799,2.30211247 1.27492641,1.168e-4 2.30095141,-1.0266822 2.30106801,-2.30159017 l 0.0047,-52.6190439 c 1.161e-4,-1.274936 -1.0256203,-2.301472 -2.30054571,-2.30159 z m 0.00522,4.546778 c 0.84967701,-7.8e-5 1.53841521,0.688892 1.53804941,1.53857 -4.974e-4,0.849065 -0.6889832,1.537083 -1.53804941,1.537005 -0.8490657,-2.11e-4 -1.53731689,-0.688461 -1.53752699,-1.537527 -7.78e-5,-0.849268 0.68825769,-1.537837 1.53752699,-1.538048 z m -5.222e-4,3.997883 c 0.84967691,-7.7e-5 1.53841521,0.688892 1.53804931,1.53857 -4.974e-4,0.849065 -0.6889832,1.537083 -1.53804931,1.537006 -0.8490657,-2.12e-4 -1.53731689,-0.688462 -1.53752709,-1.537527 -7.77e-5,-0.849269 0.68825779,-1.537838 1.53752709,-1.538049 z m 0,3.997883 c 0.84947321,-7.7e-5 1.53812711,0.688574 1.53804931,1.538049 -2.102e-4,0.849474 -0.689098,1.537893 -1.53857161,1.537527 -0.8490657,-2.11e-4 -1.53731689,-0.688462 -1.53752699,-1.537527 -7.78e-5,-0.849475 0.68857599,-1.538126 1.53804929,-1.538049 z m -5.223e-4,3.997883 c 0.84947331,-7.7e-5 1.53812721,0.688575 1.53804941,1.538049 -2.101e-4,0.849474 -0.689098,1.537893 -1.53857161,1.537527 -0.8488618,-5.35e-4 -1.53679489,-0.688665 -1.53700479,-1.537527 -7.78e-5,-0.849269 0.68825769,-1.537837 1.53752699,-1.538049 z m -0.00574,3.958715 c 0.86377331,2.68e-4 1.56396881,0.700391 1.56416221,1.564163 2.72e-5,0.864039 -0.7006433,1.564488 -1.56468451,1.564684 -0.864314,5.8e-5 -1.56486899,-0.700372 -1.56468439,-1.564684 3.476e-4,-0.864048 0.70115689,-1.564355 1.56520669,-1.564163 z m -5.222e-4,3.720565 c 0.86377461,2.67e-4 1.56397241,0.70039 1.56416221,1.564162 2.72e-5,0.864037 -0.7001211,1.564491 -1.56416221,1.564684 -0.8643148,5.9e-5 -1.56486889,-0.700372 -1.56468449,-1.564684 3.476e-4,-0.864047 0.70063249,-1.564358 1.56468449,-1.564162 z m 0,3.720564 c 0.86377251,2.67e-4 1.56344811,0.70039 1.56363991,1.564163 2.73e-5,0.864039 -0.7001211,1.564489 -1.56416221,1.564684 -0.8643148,5.9e-5 -1.56486829,-0.700373 -1.56468449,-1.564684 3.477e-4,-0.864048 0.70115619,-1.564356 1.56520679,-1.564163 z m -5.223e-4,3.720565 c 0.86377321,3.48e-4 1.56397021,0.700391 1.56416221,1.564163 2.72e-5,0.864041 -0.7006419,1.564491 -1.56468451,1.564684 -0.8643162,5.9e-5 -1.56487109,-0.700371 -1.56468439,-1.564684 3.476e-4,-0.864047 0.70115619,-1.564358 1.56520669,-1.564163 z m -5.223e-4,3.719521 c 0.86404051,3.47e-4 1.56435211,0.701163 1.56416221,1.565206 2.73e-5,0.864041 -0.7001196,1.56449 -1.56416221,1.564685 -0.8643148,5.7e-5 -1.56486959,-0.700372 -1.56468439,-1.564685 -2.8e-5,-0.864314 0.70037299,-1.565396 1.56468439,-1.565206 z m 0,3.720564 c 0.86403991,3.48e-4 1.56382951,0.701162 1.56364001,1.565207 2.73e-5,0.864041 -0.7001206,1.564489 -1.56416221,1.564685 -0.8643158,5.9e-5 -1.56487229,-0.700369 -1.56468449,-1.564685 -2.79e-5,-0.864314 0.70089529,-1.565398 1.56520669,-1.565207 z m -5.222e-4,3.720566 c 0.86404151,3.47e-4 1.56435081,0.701165 1.56416221,1.565206 2.72e-5,0.864041 -0.7006445,1.564489 -1.56468451,1.564685 -0.8643144,3.8e-5 -1.56487089,-0.70037 -1.56468439,-1.564685 -2.8e-5,-0.864315 0.70089089,-1.565398 1.56520669,-1.565206 z m -5.223e-4,3.7205644 c 0.86404061,3.476e-4 1.56434911,0.7011658 1.56416221,1.5652068 2.73e-5,0.8640415 -0.7001204,1.5644886 -1.56416221,1.5646846 -0.8643159,2.78e-5 -1.56487289,-0.700369 -1.56468439,-1.5646846 -2.8e-5,-0.8643151 0.70036959,-1.5653991 1.56468439,-1.5652068 z m 0,3.7205649 c 0.86404161,3.476e-4 1.56382841,0.7011653 1.56364001,1.5652068 2.73e-5,0.8640399 -0.7001219,1.5644886 -1.56416221,1.5646844 -0.8643143,3.8e-5 -1.56487079,-0.7003701 -1.56468449,-1.5646844 -2.79e-5,-0.8643159 0.70089079,-1.5653988 1.56520669,-1.5652068 z m 0.00157,4.5629666 c 0.1929069,1.355e-4 0.349255,0.1564836 0.3493905,0.3493905 1.528e-4,0.1931109 -0.1562797,0.34977717 -0.3493905,0.34991277 -0.1933149,1.53e-4 -0.3500658,-0.15659787 -0.3499128,-0.34991277 1.356e-4,-0.1931108 0.1568019,-0.3495433 0.3499128,-0.3493905 z"
       id="pendulum"
       inkscape:connector-curvature="0"
       sodipodi:nodetypes="cccsccccccccccccccccccccccccccccccccccccccccccccccccccccccccccccccccccccccccc" />
  </g>
</svg>
